<svg width="180" height="30" viewBox="0 0 180 30" fill="none" xmlns="http://www.w3.org/2000/svg">
<g clip-path="url(#clip0_341_656)">
<path d="M14.7573 4.95854L29.1886 0.78125L24.9778 15.0001L29.1886 29.1788L14.7573 25.0416L0.285156 29.1788L4.53687 15.0001L0.285156 0.78125L14.7573 4.95854Z" fill="white"/>
</g>
<path d="M40.1094 25.4721V2.9165H49.2268C50.6261 2.9165 51.8723 3.19576 52.9655 3.75428C54.0806 4.29132 54.9442 5.06465 55.5564 6.07428C56.1905 7.06243 56.5075 8.25465 56.5075 9.65095V10.0698C56.5075 11.4661 56.1796 12.6691 55.5236 13.6787C54.8896 14.6884 54.0259 15.4617 52.9327 15.9987C51.8395 16.5358 50.6042 16.8043 49.2268 16.8043H43.6514V25.4721H40.1094ZM43.6514 13.6465H48.866C50.1123 13.6465 51.1071 13.3243 51.8505 12.6798C52.5938 12.0354 52.9655 11.1547 52.9655 10.0376V9.71539C52.9655 8.57687 52.5938 7.68539 51.8505 7.04095C51.1071 6.3965 50.1123 6.07428 48.866 6.07428H43.6514V13.6465Z" fill="white"/>
<path d="M67.0964 25.9232C65.4784 25.9232 64.0354 25.601 62.7673 24.9565C61.521 24.2906 60.5371 23.3454 59.8156 22.121C59.0941 20.8965 58.7333 19.4465 58.7333 17.771V17.2876C58.7333 15.6121 59.0941 14.1728 59.8156 12.9698C60.5371 11.7454 61.521 10.8002 62.7673 10.1343C64.0354 9.46836 65.4784 9.13539 67.0964 9.13539C68.7143 9.13539 70.1574 9.46836 71.4255 10.1343C72.6936 10.8002 73.6885 11.7454 74.41 12.9698C75.1315 14.1728 75.4923 15.6121 75.4923 17.2876V17.771C75.4923 19.4465 75.1315 20.8965 74.41 22.121C73.6885 23.3454 72.6936 24.2906 71.4255 24.9565C70.1574 25.601 68.7143 25.9232 67.0964 25.9232ZM67.0964 22.9587C68.5832 22.9587 69.7857 22.4969 70.704 21.5732C71.6441 20.628 72.1142 19.3284 72.1142 17.6743V17.3843C72.1142 15.7302 71.6551 14.4413 70.7368 13.5176C69.8185 12.5724 68.605 12.0998 67.0964 12.0998C65.6315 12.0998 64.429 12.5724 63.4888 13.5176C62.5705 14.4413 62.1114 15.7302 62.1114 17.3843V17.6743C62.1114 19.3284 62.5705 20.628 63.4888 21.5732C64.429 22.4969 65.6315 22.9587 67.0964 22.9587Z" fill="white"/>
<path d="M86.3227 25.9232C84.2675 25.9232 82.5621 25.4721 81.2065 24.5698C79.8509 23.6676 79.0201 22.3035 78.714 20.4776L81.8624 19.7365C82.0373 20.6172 82.3325 21.3154 82.7479 21.8309C83.1633 22.3465 83.6772 22.7117 84.2894 22.9265C84.9234 23.1413 85.6012 23.2487 86.3227 23.2487C87.3941 23.2487 88.214 23.0447 88.7825 22.6365C89.3728 22.2284 89.668 21.7021 89.668 21.0576C89.668 20.4132 89.3946 19.9406 88.848 19.6398C88.3014 19.3391 87.4925 19.0921 86.4211 18.8987L85.306 18.7054C84.2128 18.5121 83.218 18.2328 82.3216 17.8676C81.4251 17.5024 80.7146 16.9976 80.1898 16.3532C79.6651 15.7087 79.4027 14.8817 79.4027 13.8721C79.4027 12.3684 79.9712 11.2084 81.1081 10.3921C82.245 9.55428 83.7537 9.13539 85.634 9.13539C87.4487 9.13539 88.9355 9.54354 90.0943 10.3598C91.275 11.1547 92.0402 12.2395 92.3901 13.6143L89.2416 14.4843C89.0448 13.5176 88.6294 12.841 87.9953 12.4543C87.3613 12.0461 86.5742 11.8421 85.634 11.8421C84.7157 11.8421 83.9942 12.0139 83.4694 12.3576C82.9447 12.6798 82.6823 13.1417 82.6823 13.7432C82.6823 14.3876 82.9338 14.8602 83.4367 15.1609C83.9614 15.4617 84.661 15.6872 85.5356 15.8376L86.6835 16.0309C87.8423 16.2243 88.9027 16.4928 89.8647 16.8365C90.8268 17.1802 91.5811 17.6743 92.1277 18.3187C92.6961 18.9632 92.9804 19.8224 92.9804 20.8965C92.9804 22.4861 92.3791 23.7213 91.1766 24.6021C89.9741 25.4828 88.3561 25.9232 86.3227 25.9232Z" fill="white"/>
<path d="M96.9288 25.4721V9.5865H100.307V25.4721H96.9288ZM98.6342 7.42762C97.9782 7.42762 97.4207 7.22354 96.9616 6.81539C96.5243 6.38576 96.3056 5.83799 96.3056 5.17206C96.3056 4.50613 96.5243 3.9691 96.9616 3.56095C97.4207 3.13132 97.9782 2.9165 98.6342 2.9165C99.312 2.9165 99.8695 3.13132 100.307 3.56095C100.744 3.9691 100.963 4.50613 100.963 5.17206C100.963 5.83799 100.744 6.38576 100.307 6.81539C99.8695 7.22354 99.312 7.42762 98.6342 7.42762Z" fill="white"/>
<path d="M111.387 25.4721C110.403 25.4721 109.616 25.1821 109.026 24.6021C108.458 24.0221 108.173 23.2487 108.173 22.2821V12.3898H103.713V9.5865H108.173V4.33428H111.551V9.5865H116.372V12.3898H111.551V21.7021C111.551 22.3465 111.857 22.6687 112.47 22.6687H115.848V25.4721H111.387Z" fill="white"/>
<path d="M120.341 25.4721V9.5865H123.719V25.4721H120.341ZM122.046 7.42762C121.39 7.42762 120.833 7.22354 120.374 6.81539C119.936 6.38576 119.718 5.83799 119.718 5.17206C119.718 4.50613 119.936 3.9691 120.374 3.56095C120.833 3.13132 121.39 2.9165 122.046 2.9165C122.724 2.9165 123.282 3.13132 123.719 3.56095C124.156 3.9691 124.375 4.50613 124.375 5.17206C124.375 5.83799 124.156 6.38576 123.719 6.81539C123.282 7.22354 122.724 7.42762 122.046 7.42762Z" fill="white"/>
<path d="M132.471 25.4721L127.027 9.5865H130.602L134.898 23.0232H135.423L139.719 9.5865H143.294L137.85 25.4721H132.471Z" fill="white"/>
<path d="M152.77 25.7621C151.546 25.7621 150.453 25.4935 149.491 24.9565C148.528 24.4195 147.774 23.6569 147.228 22.6687C146.681 21.6806 146.408 20.4991 146.408 19.1243V9.5865H149.786V18.8987C149.786 20.2735 150.136 21.2939 150.835 21.9598C151.535 22.6043 152.508 22.9265 153.754 22.9265C155.131 22.9265 156.236 22.4754 157.066 21.5732C157.919 20.6495 158.346 19.3284 158.346 17.6098V9.5865H161.724V25.4721H158.411V23.0876H157.886C157.58 23.7321 157.034 24.3443 156.247 24.9243C155.459 25.4828 154.301 25.7621 152.77 25.7621Z" fill="white"/>
<path d="M173.342 25.9232C171.287 25.9232 169.581 25.4721 168.226 24.5698C166.87 23.6676 166.039 22.3035 165.733 20.4776L168.882 19.7365C169.056 20.6172 169.352 21.3154 169.767 21.8309C170.183 22.3465 170.696 22.7117 171.309 22.9265C171.943 23.1413 172.62 23.2487 173.342 23.2487C174.413 23.2487 175.233 23.0447 175.802 22.6365C176.392 22.2284 176.687 21.7021 176.687 21.0576C176.687 20.4132 176.414 19.9406 175.867 19.6398C175.321 19.3391 174.512 19.0921 173.44 18.8987L172.325 18.7054C171.232 18.5121 170.237 18.2328 169.341 17.8676C168.444 17.5024 167.734 16.9976 167.209 16.3532C166.684 15.7087 166.422 14.8817 166.422 13.8721C166.422 12.3684 166.99 11.2084 168.127 10.3921C169.264 9.55428 170.773 9.13539 172.653 9.13539C174.468 9.13539 175.955 9.54354 177.113 10.3598C178.294 11.1547 179.059 12.2395 179.409 13.6143L176.261 14.4843C176.064 13.5176 175.649 12.841 175.014 12.4543C174.38 12.0461 173.593 11.8421 172.653 11.8421C171.735 11.8421 171.013 12.0139 170.489 12.3576C169.964 12.6798 169.702 13.1417 169.702 13.7432C169.702 14.3876 169.953 14.8602 170.456 15.1609C170.981 15.4617 171.68 15.6872 172.555 15.8376L173.703 16.0309C174.861 16.2243 175.922 16.4928 176.884 16.8365C177.846 17.1802 178.6 17.6743 179.147 18.3187C179.715 18.9632 180 19.8224 180 20.8965C180 22.4861 179.398 23.7213 178.196 24.6021C176.993 25.4828 175.375 25.9232 173.342 25.9232Z" fill="white"/>
<defs>
<clipPath id="clip0_341_656">
<rect width="29.5167" height="29" fill="white" transform="translate(0 0.5)"/>
</clipPath>
</defs>
</svg>
